<mxfile host="65bd71144e">
    <diagram id="GclW4s59jS6mo6iEm7r0" name="Страница 1">
        <mxGraphModel dx="836" dy="379" grid="1" gridSize="10" guides="1" tooltips="1" connect="1" arrows="1" fold="1" page="1" pageScale="1" pageWidth="827" pageHeight="1169" math="0" shadow="0">
            <root>
                <mxCell id="0"/>
                <mxCell id="1" parent="0"/>
                <mxCell id="Ou3u_nPwSBV4WchfzItm-4" value="" style="edgeStyle=orthogonalEdgeStyle;rounded=0;orthogonalLoop=1;jettySize=auto;html=1;entryX=0.5;entryY=0;entryDx=0;entryDy=0;" parent="1" source="Ou3u_nPwSBV4WchfzItm-1" target="Ou3u_nPwSBV4WchfzItm-9" edge="1">
                    <mxGeometry relative="1" as="geometry">
                        <mxPoint x="190" y="240" as="targetPoint"/>
                    </mxGeometry>
                </mxCell>
                <mxCell id="Ou3u_nPwSBV4WchfzItm-1" value="Start" style="ellipse;whiteSpace=wrap;html=1;" parent="1" vertex="1">
                    <mxGeometry x="130" y="120" width="120" height="80" as="geometry"/>
                </mxCell>
                <mxCell id="Ou3u_nPwSBV4WchfzItm-2" value="Написать программу, которая из имеющегося массива строк формирует массив из строк, длина которых меньше либо равна 3-м&amp;nbsp; символам" style="text;html=1;strokeColor=none;fillColor=none;align=left;verticalAlign=middle;whiteSpace=wrap;rounded=0;" parent="1" vertex="1">
                    <mxGeometry x="40" y="10" width="440" height="70" as="geometry"/>
                </mxCell>
                <mxCell id="Ou3u_nPwSBV4WchfzItm-13" value="" style="edgeStyle=orthogonalEdgeStyle;rounded=0;orthogonalLoop=1;jettySize=auto;html=1;entryX=0.5;entryY=0;entryDx=0;entryDy=0;" parent="1" source="Ou3u_nPwSBV4WchfzItm-3" target="Ou3u_nPwSBV4WchfzItm-7" edge="1">
                    <mxGeometry relative="1" as="geometry">
                        <mxPoint x="190" y="480" as="targetPoint"/>
                    </mxGeometry>
                </mxCell>
                <mxCell id="Ou3u_nPwSBV4WchfzItm-19" value="" style="edgeStyle=orthogonalEdgeStyle;rounded=0;orthogonalLoop=1;jettySize=auto;html=1;" parent="1" source="Ou3u_nPwSBV4WchfzItm-3" target="Ou3u_nPwSBV4WchfzItm-18" edge="1">
                    <mxGeometry relative="1" as="geometry">
                        <Array as="points">
                            <mxPoint x="490" y="400"/>
                            <mxPoint x="490" y="640"/>
                            <mxPoint x="180" y="640"/>
                        </Array>
                    </mxGeometry>
                </mxCell>
                <mxCell id="Ou3u_nPwSBV4WchfzItm-3" value="i = 0; i &amp;lt; arrey.Lenght; i++" style="rhombus;whiteSpace=wrap;html=1;fillColor=#f8cecc;strokeColor=#b85450;fontColor=#000000;" parent="1" vertex="1">
                    <mxGeometry x="90" y="360" width="200" height="80" as="geometry"/>
                </mxCell>
                <mxCell id="Ou3u_nPwSBV4WchfzItm-6" style="edgeStyle=orthogonalEdgeStyle;rounded=0;orthogonalLoop=1;jettySize=auto;html=1;exitX=0.5;exitY=1;exitDx=0;exitDy=0;" parent="1" source="Ou3u_nPwSBV4WchfzItm-9" target="Ou3u_nPwSBV4WchfzItm-3" edge="1">
                    <mxGeometry relative="1" as="geometry">
                        <mxPoint x="190" y="300" as="sourcePoint"/>
                    </mxGeometry>
                </mxCell>
                <mxCell id="Ou3u_nPwSBV4WchfzItm-11" value="" style="edgeStyle=orthogonalEdgeStyle;rounded=0;orthogonalLoop=1;jettySize=auto;html=1;entryX=0.5;entryY=0;entryDx=0;entryDy=0;" parent="1" source="Ou3u_nPwSBV4WchfzItm-7" target="Ou3u_nPwSBV4WchfzItm-10" edge="1">
                    <mxGeometry relative="1" as="geometry"/>
                </mxCell>
                <mxCell id="Ou3u_nPwSBV4WchfzItm-15" value="yes" style="edgeLabel;html=1;align=center;verticalAlign=middle;resizable=0;points=[];" parent="Ou3u_nPwSBV4WchfzItm-11" vertex="1" connectable="0">
                    <mxGeometry x="-0.55" y="2" relative="1" as="geometry">
                        <mxPoint as="offset"/>
                    </mxGeometry>
                </mxCell>
                <mxCell id="Ou3u_nPwSBV4WchfzItm-16" value="no" style="edgeStyle=orthogonalEdgeStyle;rounded=0;orthogonalLoop=1;jettySize=auto;html=1;exitX=0;exitY=0.5;exitDx=0;exitDy=0;entryX=0;entryY=0.5;entryDx=0;entryDy=0;" parent="1" source="Ou3u_nPwSBV4WchfzItm-7" target="Ou3u_nPwSBV4WchfzItm-3" edge="1">
                    <mxGeometry x="-0.9333" relative="1" as="geometry">
                        <Array as="points">
                            <mxPoint x="40" y="520"/>
                            <mxPoint x="40" y="400"/>
                        </Array>
                        <mxPoint as="offset"/>
                    </mxGeometry>
                </mxCell>
                <mxCell id="Ou3u_nPwSBV4WchfzItm-7" value="arrey[i].Lenght &amp;lt; 4" style="rhombus;whiteSpace=wrap;html=1;fillColor=#d5e8d4;strokeColor=#82b366;fontColor=#000000;" parent="1" vertex="1">
                    <mxGeometry x="90" y="480" width="200" height="80" as="geometry"/>
                </mxCell>
                <mxCell id="Ou3u_nPwSBV4WchfzItm-9" value="string arrey[];&lt;br&gt;int count = 0;" style="rounded=0;whiteSpace=wrap;html=1;" parent="1" vertex="1">
                    <mxGeometry x="130" y="240" width="120" height="60" as="geometry"/>
                </mxCell>
                <mxCell id="Ou3u_nPwSBV4WchfzItm-17" style="edgeStyle=orthogonalEdgeStyle;rounded=0;orthogonalLoop=1;jettySize=auto;html=1;" parent="1" source="Ou3u_nPwSBV4WchfzItm-10" edge="1">
                    <mxGeometry relative="1" as="geometry">
                        <mxPoint x="40" y="520" as="targetPoint"/>
                    </mxGeometry>
                </mxCell>
                <mxCell id="Ou3u_nPwSBV4WchfzItm-10" value="count ++" style="whiteSpace=wrap;html=1;" parent="1" vertex="1">
                    <mxGeometry x="300" y="560" width="120" height="60" as="geometry"/>
                </mxCell>
                <mxCell id="Ou3u_nPwSBV4WchfzItm-21" style="edgeStyle=orthogonalEdgeStyle;rounded=0;orthogonalLoop=1;jettySize=auto;html=1;entryX=0.5;entryY=0;entryDx=0;entryDy=0;" parent="1" source="Ou3u_nPwSBV4WchfzItm-18" target="Ou3u_nPwSBV4WchfzItm-20" edge="1">
                    <mxGeometry relative="1" as="geometry"/>
                </mxCell>
                <mxCell id="Ou3u_nPwSBV4WchfzItm-18" value="strung result = new string[count];&lt;br&gt;int j = 0;" style="whiteSpace=wrap;html=1;" parent="1" vertex="1">
                    <mxGeometry x="120" y="680" width="120" height="60" as="geometry"/>
                </mxCell>
                <mxCell id="Ou3u_nPwSBV4WchfzItm-25" style="edgeStyle=orthogonalEdgeStyle;rounded=0;orthogonalLoop=1;jettySize=auto;html=1;entryX=0.5;entryY=0;entryDx=0;entryDy=0;" parent="1" source="Ou3u_nPwSBV4WchfzItm-20" target="Ou3u_nPwSBV4WchfzItm-24" edge="1">
                    <mxGeometry relative="1" as="geometry"/>
                </mxCell>
                <mxCell id="Ou3u_nPwSBV4WchfzItm-31" style="edgeStyle=orthogonalEdgeStyle;rounded=0;orthogonalLoop=1;jettySize=auto;html=1;entryX=0;entryY=0.5;entryDx=0;entryDy=0;" parent="1" source="Ou3u_nPwSBV4WchfzItm-20" target="Ou3u_nPwSBV4WchfzItm-30" edge="1">
                    <mxGeometry relative="1" as="geometry"/>
                </mxCell>
                <mxCell id="Ou3u_nPwSBV4WchfzItm-20" value="i = 0; i &amp;lt; arrey.Lenght; i++" style="rhombus;whiteSpace=wrap;html=1;fillColor=#f8cecc;strokeColor=#b85450;fontColor=#000000;" parent="1" vertex="1">
                    <mxGeometry x="80" y="790" width="200" height="80" as="geometry"/>
                </mxCell>
                <mxCell id="Ou3u_nPwSBV4WchfzItm-29" style="edgeStyle=orthogonalEdgeStyle;rounded=0;orthogonalLoop=1;jettySize=auto;html=1;" parent="1" source="Ou3u_nPwSBV4WchfzItm-22" edge="1">
                    <mxGeometry relative="1" as="geometry">
                        <mxPoint x="40" y="950" as="targetPoint"/>
                    </mxGeometry>
                </mxCell>
                <mxCell id="Ou3u_nPwSBV4WchfzItm-22" value="result[j] = arrey[i]&lt;br&gt;j++" style="whiteSpace=wrap;html=1;" parent="1" vertex="1">
                    <mxGeometry x="290" y="990" width="120" height="60" as="geometry"/>
                </mxCell>
                <mxCell id="Ou3u_nPwSBV4WchfzItm-26" value="yes" style="edgeStyle=orthogonalEdgeStyle;rounded=0;orthogonalLoop=1;jettySize=auto;html=1;entryX=0.5;entryY=0;entryDx=0;entryDy=0;" parent="1" source="Ou3u_nPwSBV4WchfzItm-24" target="Ou3u_nPwSBV4WchfzItm-22" edge="1">
                    <mxGeometry relative="1" as="geometry"/>
                </mxCell>
                <mxCell id="Ou3u_nPwSBV4WchfzItm-27" value="no" style="edgeStyle=orthogonalEdgeStyle;rounded=0;orthogonalLoop=1;jettySize=auto;html=1;entryX=0;entryY=0.5;entryDx=0;entryDy=0;exitX=0;exitY=0.5;exitDx=0;exitDy=0;" parent="1" source="Ou3u_nPwSBV4WchfzItm-24" target="Ou3u_nPwSBV4WchfzItm-20" edge="1">
                    <mxGeometry x="-0.8" relative="1" as="geometry">
                        <Array as="points">
                            <mxPoint x="40" y="950"/>
                            <mxPoint x="40" y="830"/>
                        </Array>
                        <mxPoint as="offset"/>
                    </mxGeometry>
                </mxCell>
                <mxCell id="Ou3u_nPwSBV4WchfzItm-24" value="arrey[i].Lenght &amp;lt; 4" style="rhombus;whiteSpace=wrap;html=1;fillColor=#d5e8d4;strokeColor=#82b366;fontColor=#000000;" parent="1" vertex="1">
                    <mxGeometry x="80" y="910" width="200" height="80" as="geometry"/>
                </mxCell>
                <mxCell id="Ou3u_nPwSBV4WchfzItm-33" value="" style="edgeStyle=orthogonalEdgeStyle;rounded=0;orthogonalLoop=1;jettySize=auto;html=1;" parent="1" source="Ou3u_nPwSBV4WchfzItm-30" target="Ou3u_nPwSBV4WchfzItm-32" edge="1">
                    <mxGeometry relative="1" as="geometry"/>
                </mxCell>
                <mxCell id="Ou3u_nPwSBV4WchfzItm-30" value="arrey;&lt;br&gt;result" style="shape=document;whiteSpace=wrap;html=1;boundedLbl=1;" parent="1" vertex="1">
                    <mxGeometry x="370" y="790" width="120" height="80" as="geometry"/>
                </mxCell>
                <mxCell id="Ou3u_nPwSBV4WchfzItm-32" value="end" style="ellipse;whiteSpace=wrap;html=1;" parent="1" vertex="1">
                    <mxGeometry x="570" y="800" width="120" height="60" as="geometry"/>
                </mxCell>
            </root>
        </mxGraphModel>
    </diagram>
</mxfile>